<svg xmlns="http://www.w3.org/2000/svg" class="ui-icon rn-menuBar__navItem__icon" viewBox="0 0 26 26">
                
            
        <title>icon-subscribe</title>
        <circle cx="13" cy="13" r="8.125" fill="#FFF"/>
        <path fill="#F6A42B" d="M20.02 2.08v21.84C23.62 21.59 26 17.571 26 13c0-4.57-2.38-8.59-5.98-10.92"/>
        <path fill="#D11F25" d="M12.943 20.068c-3.887 0-7.037-3.165-7.037-7.068 0-3.903 3.15-7.068 7.037-7.068 3.886 0 7.036 3.165 7.036 7.068 0 3.903-3.15 7.068-7.036 7.068zm7.077-17.95A12.836 12.836 0 0 0 12.943 0C5.795 0 0 5.82 0 13s5.795 13 12.943 13c2.613 0 5.042-.78 7.077-2.118V2.118z"/>
    </svg>