<svg xmlns="http://www.w3.org/2000/svg" class="ui-icon ui-icon_sizeXL" viewBox="0 0 32 32">
                    
                
        <title>facebook</title>
        <path fill="#43619C" fill-rule="evenodd" d="M16.002 0C7.164 0 0 7.164 0 16.002 0 24.836 7.164 32 16.002 32 24.836 32 32 24.836 32 16.002 32 7.164 24.836 0 16.002 0zm7.784 22.766c0 .472-.232.78-.7.78H19.15v-5.9h2.002l.304-2.529H19.15v-1.315c0-.674.181-1.214 1.15-1.214h1.379v-2.01c-.422-.03-1.075-.093-1.93-.093-1.779 0-3.127 1.088-3.127 3.085v1.547h-2.108v2.529h2.108v5.9h-7.3c-.472 0-.708-.308-.708-.78V9.002c0-.472.236-1.05.708-1.05h13.765c.467 0 .7.578.7 1.05v13.764z"/>
    </svg>