<svg xmlns="http://www.w3.org/2000/svg" class="ui-icon ui-icon_sizeXL" viewBox="0 0 32 32">
                    
                
        <title>instagram</title>
        <path fill="#2A5B83" d="M31.789 15.832c0 8.714-7.064 15.778-15.778 15.778S.233 24.546.233 15.832 7.297.054 16.011.054 31.79 7.118 31.79 15.832"/>
        <path fill="#FFF" d="M22.215 8.172H10.601c-1 0-1.811.81-1.811 1.807v11.623c0 .998.81 1.807 1.811 1.807h11.614c1 0 1.812-.81 1.812-1.807V9.98c0-.998-.811-1.807-1.812-1.807zm-2.473 2.38c0-.262.213-.475.475-.475h1.429c.263 0 .476.213.476.476v1.428a.476.476 0 0 1-.476.477h-1.429a.476.476 0 0 1-.475-.477v-1.428zm-3.316 2.333c1.618 0 2.93 1.31 2.93 2.923a2.927 2.927 0 0 1-2.93 2.924 2.927 2.927 0 0 1-2.93-2.924 2.927 2.927 0 0 1 2.93-2.923zm6.172 8.62a.476.476 0 0 1-.476.476H10.695a.476.476 0 0 1-.477-.477v-7.142h1.905c-.248.357-.332 1.023-.332 1.446 0 2.55 2.08 4.625 4.635 4.625 2.556 0 4.635-2.075 4.635-4.625 0-.423-.06-1.079-.367-1.446h1.904v7.142z"/>
    </svg>