<svg xmlns="http://www.w3.org/2000/svg" class="ui-icon ui-icon_sizeXL" viewBox="0 0 32 32">
                    
                
        <title>messenger</title>
        <path fill="#2196F3" d="M31.971 15.986c0 8.828-7.157 15.985-15.985 15.985C7.157 31.971 0 24.814 0 15.986 0 7.157 7.157 0 15.986 0 24.814 0 31.97 7.157 31.97 15.986"/>
        <path fill="#FFF" d="M16.21 7.58A8.053 8.053 0 0 0 8 15.449a7.719 7.719 0 0 0 2.737 5.856v2.354a.342.342 0 0 0 .523.29l1.907-1.191a8.472 8.472 0 0 0 3.044.559 8.053 8.053 0 0 0 8.21-7.868 8.053 8.053 0 0 0-8.21-7.867z"/>
        <path fill="#2196F3" d="M21.823 13.607a.372.372 0 0 0-.455-.093l-3.694 1.876-2.299-1.836a.375.375 0 0 0-.482.018l-4.263 3.97a.315.315 0 0 0 .001.467.375.375 0 0 0 .42.056l3.695-1.875 2.3 1.836c.141.112.351.105.483-.018l4.263-3.97a.314.314 0 0 0 .031-.431z"/>
    </svg>