<svg xmlns="http://www.w3.org/2000/svg" class="ui-icon ui-icon_sizeXL" viewBox="0 0 32 32">
                    
                
        <title>spotify</title>
        <path fill="#1DB954" d="M31.971 15.986c0 8.828-7.157 15.985-15.985 15.985C7.157 31.971 0 24.814 0 15.986 0 7.157 7.157 0 15.986 0 24.814 0 31.97 7.157 31.97 15.986"/>
        <ellipse cx="16" cy="15.579" fill="#FFF" rx="12.211" ry="10.105"/>
        <path fill="#1DB954" d="M16 2.947C8.791 2.947 2.947 8.791 2.947 16c0 7.209 5.844 13.053 13.053 13.053 7.209 0 13.053-5.844 13.053-13.053 0-7.209-5.844-13.053-13.053-13.053zm5.772 18.937a.915.915 0 0 1-1.228.313c-2.36-1.339-5.086-1.554-6.958-1.499-2.073.062-3.594.459-3.609.463a.902.902 0 0 1-1.103-.61.868.868 0 0 1 .627-1.07c.069-.02 1.705-.45 3.98-.523a18.05 18.05 0 0 1 3.835.27c1.524.28 2.915.773 4.134 1.464a.857.857 0 0 1 .322 1.192zm1.66-3.477c-.199.347-.558.54-.926.54-.184 0-.37-.048-.54-.149-2.816-1.673-6.07-1.941-8.304-1.872-2.474.076-4.29.573-4.307.578a1.07 1.07 0 0 1-1.317-.763 1.091 1.091 0 0 1 .749-1.338c.082-.023 2.034-.562 4.75-.653 1.6-.054 3.14.06 4.576.337 1.82.35 3.48.966 4.935 1.83a1.1 1.1 0 0 1 .384 1.49zm.947-3.25c-.223 0-.45-.057-.656-.178-6.639-3.891-15.25-1.578-15.336-1.554a1.308 1.308 0 0 1-.692-2.52c.099-.028 2.474-.675 5.777-.784 1.945-.064 3.818.071 5.565.404 2.214.421 4.233 1.16 6.001 2.197a1.31 1.31 0 0 1-.659 2.436z"/>
    </svg>