<svg xmlns="http://www.w3.org/2000/svg" class="ui-icon ui-icon_sizeXL" viewBox="0 0 32 32">
                    
                
        <title>twitter</title>
        <path fill="#24A9E6" d="M31.79 15.832c0 8.714-7.065 15.778-15.779 15.778C7.297 31.61.233 24.546.233 15.832S7.297.054 16.011.054 31.79 7.118 31.79 15.832"/>
        <path fill="#FFF" d="M23.589 9.498c-.618.375-1.3.648-2.03.794a3.15 3.15 0 0 0-2.33-1.034c-1.762 0-3.192 1.467-3.192 3.275 0 .256.027.506.082.745-2.654-.136-5.007-1.438-6.583-3.422a3.333 3.333 0 0 0-.432 1.648c0 1.136.564 2.138 1.421 2.725a3.13 3.13 0 0 1-1.447-.408v.04c0 1.587 1.1 2.911 2.563 3.21a3.112 3.112 0 0 1-1.442.057c.405 1.302 1.584 2.249 2.982 2.274a6.304 6.304 0 0 1-4.728 1.357 8.889 8.889 0 0 0 4.895 1.47c5.874 0 9.086-4.988 9.086-9.316 0-.143-.003-.285-.008-.424a6.558 6.558 0 0 0 1.592-1.695 6.254 6.254 0 0 1-1.834.515A3.27 3.27 0 0 0 23.59 9.5"/>
    </svg>