<svg xmlns="http://www.w3.org/2000/svg" class="ui-icon ui-icon_sizeXL" viewBox="0 0 32 32">
                    
                
        <title>youtube</title>
        <path fill="#D9252A" d="M15.987 0C7.157 0 0 7.158 0 15.987c0 8.826 7.158 15.984 15.987 15.984 8.826 0 15.984-7.158 15.984-15.984C31.97 7.157 24.813 0 15.987 0z"/>
        <path fill="#FFF" d="M22.955 10.47c-1.346-.365-6.744-.365-6.744-.365s-5.399 0-6.745.365c-.743.2-1.328.791-1.526 1.542-.361 1.36-.361 4.199-.361 4.199s0 2.838.36 4.198c.2.75.784 1.342 1.527 1.542 1.346.365 6.745.365 6.745.365s5.398 0 6.744-.365a2.174 2.174 0 0 0 1.526-1.542c.361-1.36.361-4.198.361-4.198s0-2.839-.36-4.199a2.173 2.173 0 0 0-1.527-1.542z"/>
        <path fill="#D9252A" d="M19.222 16.414l-4.417-2.646v5.292z"/>
    </svg>